<svg id="Layer_2" data-name="Layer 2" xmlns="http://www.w3.org/2000/svg" width="512" height="91" viewBox="0 0 512 91"><defs><style>.cls-1{fill:#fff;}</style></defs><path class="cls-1" d="M32.7525,30.1671a84.1086,84.1086,0,0,1,8.8644,2.9048,28.1923,28.1923,0,0,1,7.0114,3.9061,15.66,15.66,0,0,1,6.26,13.1213v.3a19.8327,19.8327,0,0,1-1.9531,8.8137,20.39,20.39,0,0,1-5.4085,6.8616,25.0129,25.0129,0,0,1-8.1133,4.4066,31.9938,31.9938,0,0,1-10.1658,1.5526,37.766,37.766,0,0,1-9.7658-1.2423,39.3526,39.3526,0,0,1-8.4635-3.2806A33.19,33.19,0,0,1,4.3573,62.89,20.3266,20.3266,0,0,1,0,57.5111l11.7189-7.4118a44.4179,44.4179,0,0,0,3.8062,3.7559A22.7935,22.7935,0,0,0,19.5317,56.66a18.532,18.532,0,0,0,4.6071,1.7526,23.5809,23.5809,0,0,0,5.509.601,19.0949,19.0949,0,0,0,3.8559-.401A12.1533,12.1533,0,0,0,37.06,57.3072a8.18,8.18,0,0,0,2.6043-2.256,5.5084,5.5084,0,0,0,1.0014-3.3624,5.6578,5.6578,0,0,0-.701-2.7072,8.0931,8.0931,0,0,0-2.4037-2.5584,20.8928,20.8928,0,0,0-4.6076-2.4087,59.1153,59.1153,0,0,0-7.3118-2.2585,77.9823,77.9823,0,0,1-9.7157-2.9594,28.0844,28.0844,0,0,1-7.3113-4.0125,15.9935,15.9935,0,0,1-4.6076-5.6686,17.7809,17.7809,0,0,1-1.6023-7.8266,20.6921,20.6921,0,0,1,1.8526-8.8782,18.8015,18.8015,0,0,1,5.1582-6.673,23.7142,23.7142,0,0,1,7.7626-4.1633A30.6306,30.6306,0,0,1,26.7431.1189a35.7541,35.7541,0,0,1,9.6156,1.2023A36.8468,36.8468,0,0,1,44.071,4.3757,29.7456,29.7456,0,0,1,50.03,8.5828,37.4793,37.4793,0,0,1,54.287,13.14L42.7686,20.552a28.6066,28.6066,0,0,0-8.163-5.7592,20.26,20.26,0,0,0-8.063-1.6526,13.51,13.51,0,0,0-4.4569.6507,10.5286,10.5286,0,0,0-3.0549,1.6028,7.0126,7.0126,0,0,0-1.8531,2.1536,4.83,4.83,0,0,0-.6512,2.3033,5.7281,5.7281,0,0,0,1.0521,3.4559,9.9616,9.9616,0,0,0,3.1048,2.654,26.4372,26.4372,0,0,0,5.108,2.2033Q28.8459,29.1664,32.7525,30.1671Z"/><path class="cls-1" d="M66.5064,64.3215,48.978,21.0525H63.3012v.1L76.222,57.5111Zm38.3615-43.269-.1005.2q-1.7038,4.6083-3.3052,8.9645-1.6034,4.3571-3.0047,8.163-5.01,14.0244-8.9644,24.089A76.5934,76.5934,0,0,1,81.03,78.8457a28.3666,28.3666,0,0,1-10.1663,9.4151q-5.66,2.9037-14.1725,2.9042H56.49V77.5433h.2005q2.6031,0,4.6573-.2a14.4945,14.4945,0,0,0,3.756-.8522,11.9169,11.9169,0,0,0,3.1549-1.8028,13.8578,13.8578,0,0,0,2.7545-3.055,32.1416,32.1416,0,0,0,2.6043-4.4066q1.3-2.6037,2.7042-6.21,1.4016-3.6057,3.1052-8.363,1.7016-4.7561,3.8057-10.7673,1.6011-4.507,3.4057-9.6156,1.8029-5.1078,3.9061-11.1175v-.1Z"/><path class="cls-1" d="M108.8731,21.0525h13.6217v50.08H108.8731Zm46.2742,5.8094a19.2591,19.2591,0,0,1,3.6057,7.8128,51.9766,51.9766,0,0,1,1.1019,11.6184v24.84H146.2331V46.2291q0-2.8128-.15-5.373a12.4905,12.4905,0,0,0-1.0516-4.518,6.6044,6.6044,0,0,0-2.9048-3.0628,12.0194,12.0194,0,0,0-5.7094-1.1049,14.3551,14.3551,0,0,0-6.5105,1.5024v.1l-.1-.1-4.9081-8.6546.1-.0985A18.7871,18.7871,0,0,1,138.02,20.2515Q150.0391,20.2515,155.1473,26.8619Z"/><path class="cls-1" d="M201.9216,52.0021l10.8175,7.1119-.1005.1a25.7322,25.7322,0,0,1-22.3355,12.8208,25.0487,25.0487,0,0,1-10.1165-2.0531,26.2073,26.2073,0,0,1-13.772-13.7725,25.457,25.457,0,0,1,0-20.0316,26.2073,26.2073,0,0,1,13.772-13.7725,25.0487,25.0487,0,0,1,10.1165-2.0531,25.7332,25.7332,0,0,1,22.3355,12.82l.1005.1005-10.9175,7.1114-.1-.1a14.67,14.67,0,0,0-4.6573-6.01,10.9762,10.9762,0,0,0-6.7607-2.3037,11.366,11.366,0,0,0-5.0583,1.1521,12.7656,12.7656,0,0,0-4.0563,3.1047,15.2367,15.2367,0,0,0-2.7043,4.5076,14.8024,14.8024,0,0,0-1.0019,5.4587,14.4083,14.4083,0,0,0,1.0019,5.4086,14.0572,14.0572,0,0,0,2.7043,4.3568,12.2855,12.2855,0,0,0,9.1146,3.9564,11.86,11.86,0,0,0,6.7607-2.0531,12.9146,12.9146,0,0,0,4.6573-5.7592l.1-.201Z"/><path class="cls-1" d="M246.0911,20.2515a25.7534,25.7534,0,0,1,10.216,2.0531,26.3447,26.3447,0,0,1,8.3635,5.609,26.6608,26.6608,0,0,1,5.6085,8.2635,25.0354,25.0354,0,0,1,2.0541,10.116A25.9967,25.9967,0,0,1,270.2791,56.61a26.034,26.034,0,0,1-13.972,13.9725,25.762,25.762,0,0,1-10.216,2.053,18.9467,18.9467,0,0,1-12.32-3.9731v-.0985l5.008-9.1492.1.0995a13.4287,13.4287,0,0,0,5.509,1.2019,13.9073,13.9073,0,0,0,5.5085-1.1093A14.2236,14.2236,0,0,0,257.51,51.941a14.4434,14.4434,0,0,0,1.1014-5.6493,13.8892,13.8892,0,0,0-4.1569-9.9851,14.64,14.64,0,0,0-4.5573-3.0264,14.39,14.39,0,0,0-11.0677-.0064,14.0875,14.0875,0,0,0-7.4616,7.4759,13.65,13.65,0,0,0-1.1019,5.4666V91.165H216.7437V21.0525h13.5218v6.7468Q235.674,20.2525,246.0911,20.2515Z"/><path class="cls-1" d="M278.4421,1.0208h13.3223l-.1005,70.1121H278.3426Zm45.9063,26.0416q4.4746,6.0092,4.4746,19.03v25.04H315.5017V46.1567q0-2.6946-.15-5.1942A11.8337,11.8337,0,0,0,314.3,36.5667a6.6348,6.6348,0,0,0-2.9042-2.9973,12.07,12.07,0,0,0-5.709-1.0985,14.95,14.95,0,0,0-6.3109,1.6024l-.0995.1-.1005-.2-4.8076-8.6748.1-.1a17.7088,17.7088,0,0,1,5.8085-3.4855,20.4716,20.4716,0,0,1,7.0114-1.161Q319.3792,20.552,324.3484,27.0624Z"/><path class="cls-1" d="M359.8732,20.2515a25.039,25.039,0,0,1,10.1155,2.0531,26.2027,26.2027,0,0,1,13.7725,13.772,25.4594,25.4594,0,0,1,0,20.0326,26.2087,26.2087,0,0,1-13.7725,13.7715,25.9485,25.9485,0,0,1-20.2321,0,26.2023,26.2023,0,0,1-13.7715-13.7715,25.448,25.448,0,0,1,0-20.0326,26.1963,26.1963,0,0,1,13.7715-13.772A25.04,25.04,0,0,1,359.8732,20.2515Zm0,39.7639A10.065,10.065,0,0,0,364.53,58.913a12.2914,12.2914,0,0,0,3.8066-3.055,15.05,15.05,0,0,0,2.6038-4.5066,15.8024,15.8024,0,0,0,.9517-5.5592,15.2252,15.2252,0,0,0-.9517-5.3583,13.792,13.792,0,0,0-2.6038-4.4071,13.0261,13.0261,0,0,0-3.8066-2.9549,10.0881,10.0881,0,0,0-4.6568-1.1019,10.3873,10.3873,0,0,0-4.7081,1.1019,12.8039,12.8039,0,0,0-3.8559,2.9549,13.7575,13.7575,0,0,0-2.6038,4.4071,15.2025,15.2025,0,0,0-.9516,5.3583,15.78,15.78,0,0,0,.9516,5.5592,15.01,15.01,0,0,0,2.6038,4.5066,12.0973,12.0973,0,0,0,3.8559,3.055A10.3632,10.3632,0,0,0,359.8732,60.0154Z"/><path class="cls-1" d="M390.0209,21.0525h13.6218v50.08H390.0209Zm46.2738,5.8094a19.2613,19.2613,0,0,1,3.6066,7.8128,51.9738,51.9738,0,0,1,1.1014,11.6184v24.84H427.381V46.2291q0-2.8128-.1507-5.373a12.47,12.47,0,0,0-1.0512-4.518,6.6048,6.6048,0,0,0-2.9052-3.0628,12.0149,12.0149,0,0,0-5.709-1.1049,14.3508,14.3508,0,0,0-6.51,1.5024v.1l-.1005-.1-4.9081-8.6546.1005-.0985a18.7862,18.7862,0,0,1,13.0208-4.6682Q431.1877,20.2515,436.2947,26.8619Z"/><path class="cls-1" d="M446.5108,1.0208H459.832V12.7392H446.5108Zm0,70.1121v-50.08H459.832v50.08Z"/><path class="cls-1" d="M474.5394,51.9016l.1005.201a12.92,12.92,0,0,0,4.6569,5.7592,11.8609,11.8609,0,0,0,6.7611,2.0531,12.2877,12.2877,0,0,0,9.1146-3.9564,14.0759,14.0759,0,0,0,2.7043-4.3568,14.3984,14.3984,0,0,0,1.0019-5.4086,14.7922,14.7922,0,0,0-1.0019-5.4587,15.2579,15.2579,0,0,0-2.7043-4.5076,12.7675,12.7675,0,0,0-4.0568-3.1047,11.3608,11.3608,0,0,0-5.0578-1.1521,10.9772,10.9772,0,0,0-6.7611,2.3037,14.6769,14.6769,0,0,0-4.6569,6.01l-.1005.1-10.9175-7.1114.1005-.1005a25.7348,25.7348,0,0,1,22.3355-12.82,25.0483,25.0483,0,0,1,10.1165,2.0531,26.2,26.2,0,0,1,13.7715,13.7725,25.4456,25.4456,0,0,1,0,20.0316,26.2,26.2,0,0,1-13.7715,13.7725,25.0483,25.0483,0,0,1-10.1165,2.0531,25.7338,25.7338,0,0,1-22.3355-12.8208l-.1005-.1,10.818-7.1119Z"/></svg>