<svg id="Layer_2" data-name="Layer 2" xmlns="http://www.w3.org/2000/svg" width="87.698" height="79.0151" viewBox="0 0 87.698 79.0151"><defs><style>.cls-1{fill:#fff;}</style></defs><path class="cls-1" d="M38.0565,55.9871c-1.0447.3447-2.0784.7243-3.1545.9673A28.27,28.27,0,0,1,20.85,56.7769a22.1661,22.1661,0,0,1-14.7688-12.74,25.8415,25.8415,0,0,1-2.1348-8.2945A31.4818,31.4818,0,0,1,4.9,23.8041,22.6536,22.6536,0,0,1,23.4126,7.3156a28.7409,28.7409,0,0,1,12.6126.64A20.64,20.64,0,0,1,49.6247,19.5932,25.572,25.572,0,0,1,51.11,23.7371c.04.148.0685.2992.102.4474a.7926.7926,0,0,1-.4776.0626q-6.2046.03-12.4094.054c-.56.002-.4587.0948-.6644-.4459a9.58,9.58,0,0,0-3.6386-4.6808A9.7675,9.7675,0,0,0,29.3594,17.58a12.21,12.21,0,0,0-5.6683.706,10.029,10.029,0,0,0-4.6676,3.8277,15.3532,15.3532,0,0,0-2.39,7.239,25.93,25.93,0,0,0,.3405,7.9791,13.4,13.4,0,0,0,2.8424,6.1169,10.1416,10.1416,0,0,0,7.8427,3.5981,12.8265,12.8265,0,0,0,4.2941-.5626,8.9619,8.9619,0,0,0,5.6444-5.3909c.47-1.114.7457-2.2881,1.1541-3.4208A21.8472,21.8472,0,0,1,56.5239,23.1311a28.2489,28.2489,0,0,1,11.2816.4392A22.2426,22.2426,0,0,1,83.4278,37.0472a28.0819,28.0819,0,0,1,2.0616,11.1152,28.3329,28.3329,0,0,1-1.1657,8.6353c-2.79,8.8518-8.682,14.3728-17.8052,16.2591a27.6382,27.6382,0,0,1-13.23-.4965A20.6941,20.6941,0,0,1,39.2613,60.0439a24.9812,24.9812,0,0,1-1.16-3.4814c-.0342-.1333-.0989-.27.0943-.337a5.0331,5.0331,0,0,1,1.6591-.1194c3.5838.014,7.1672-.046,10.7509-.0338.9067.003.9262.009,1.2708.8578a9.3167,9.3167,0,0,0,2.3627,3.4249A9.0938,9.0938,0,0,0,58.63,62.5775a11.6556,11.6556,0,0,0,7.4861-.7515,9.9258,9.9258,0,0,0,4.44-4.2356,17.5676,17.5676,0,0,0,2.0561-8.0995,24.5112,24.5112,0,0,0-.5787-6.8217,11.8094,11.8094,0,0,0-4.6579-7.3017,9.8093,9.8093,0,0,0-5.0482-1.7294,11.6185,11.6185,0,0,0-6.7,1.2777,8.2043,8.2043,0,0,0-3.2206,3.36,19.9033,19.9033,0,0,0-1.4607,3.6968,20.2646,20.2646,0,0,1-1.6425,4.0188,21.9606,21.9606,0,0,1-10.5468,9.82A1.2062,1.2062,0,0,1,38.0565,55.9871Z"/></svg>